# xmcd
#
# Track frame offsets:
#	150
#	25516
#	42146
#	63252
#	83270
#	109648
#	137517
#	158811
#	178185
#	212600
#	232067
#	258131
#	274237
#	300087
#	317049
#
# Disc length: 4504 seconds
#
# Revision: 4
# Processed by: cddbd v1.5.2PL0 Copyright (c) Steve Scherf et al.
# Submitted via: audiograbber 1.83.01
#
DISCID=b311960f
DTITLE=Jeff Healey Band - Legacy: CD2
DYEAR=2009
DGENRE=Bluesrock
TTITLE0=I think I love you too much
TTITLE1=Confidence man
TTITLE2=Full circle
TTITLE3=Life beyond the sky
TTITLE4=Angel eyes
TTITLE5=See the light
TTITLE6=While my guitar gently weeps
TTITLE7=Further on up the road
TTITLE8=Blue Jean blues
TTITLE9=I need to be loved
TTITLE10=White room
TTITLE11=Don't let your chance go by
TTITLE12=Jeff Healey Band - Tom Cochrane - All along the watchtower
TTITLE13=My little girl
TTITLE14=How long can a man be strong?
EXTD=Year: 2009   [CD3 from 3:  1x DVD and 2x CD)
EXTT0=
EXTT1=
EXTT2=
EXTT3=
EXTT4=
EXTT5=
EXTT6=
EXTT7=
EXTT8=
EXTT9=
EXTT10=
EXTT11=
EXTT12=
EXTT13=
EXTT14=
PLAYORDER=
